# xmcd CD database file
#
# Track frame offsets:
#	150
#	22755
#	44562
#
# Disc length: 882 seconds
#
# Revision: 0
# Processed by: cddbd v1.5.1PL2 Copyright (c) Steve Scherf et al.
# Submitted via: CDex 1.51
#
DISCID=1a037003
DTITLE=Carnation - Sound Factory Vol.90 おまけCD
DYEAR=2006
DGENRE=Rock
TTITLE0=Love Scene (Home Demo)
TTITLE1=Planet Radio (Home Demo)
TTITLE2=Future Rock Show (Home Demo)
EXTD=YEAR: 2006
EXTT0=
EXTT1=
EXTT2=
PLAYORDER=
